<svg xmlns="http://www.w3.org/2000/svg" width="33" height="36" fill="none"><path fill="#000" fill-opacity=".5" d="M32.26 4.096a.64.64 0 0 0-.44-.2h-6.055V1.108a.613.613 0 0 0-.598-.598H8.155a.613.613 0 0 0-.597.598v2.788H1.343a.64.64 0 0 0-.439.2.6.6 0 0 0-.159.438c0 .12.12 2.67 1.036 5.617 1.275 3.945 3.426 6.733 6.295 8.008.956 3.188 3.147 5.698 5.896 6.694v.12c0 3.306-2.51 5.935-5.737 5.935a.613.613 0 0 0-.597.598v3.386c0 .32.278.598.597.598h16.932a.613.613 0 0 0 .598-.598v-3.386a.613.613 0 0 0-.598-.598c-3.267 0-5.936-2.669-5.936-5.936v-.08c2.869-.995 5.1-3.545 6.056-6.812 2.749-1.315 4.86-4.064 6.096-7.929.956-2.948 1.035-5.537 1.035-5.617.04-.16-.04-.319-.159-.438zm-30.28.996h5.578v9.561c0 .678.04 1.315.16 1.953-4.543-2.71-5.539-9.443-5.738-11.514zm22.59 26.972v2.191H8.833v-2.191c3.506-.28 6.215-3.188 6.295-6.893.478.08.996.16 1.514.16.478 0 .956-.04 1.394-.12.16 3.626 2.988 6.574 6.534 6.853zm-6.335-8.088c-.518.12-1.036.2-1.554.2a6.4 6.4 0 0 1-1.753-.24c-.12-.04-.318-.12-.398-.12-3.307-1.115-5.777-4.78-5.777-9.123V1.745H24.57v12.948c0 4.343-2.47 8.008-5.817 9.124m6.892-7.291c.08-.598.16-1.235.16-1.873V5.092h5.418c-.199 2.071-1.155 8.605-5.578 11.434z"/><path fill="#000" fill-opacity=".5" d="m22.419 8.877-3.267-.479-1.474-2.988c-.16-.318-.518-.557-.877-.557a.955.955 0 0 0-.876.557L14.45 8.398l-3.266.479c-.359.04-.678.318-.797.677-.12.358-.04.757.239.996l2.39 2.31-.557 3.268c-.08.358.08.717.398.956.16.12.359.199.598.199.159 0 .318-.04.438-.12l3.028-1.514 2.868 1.514a.98.98 0 0 0 1.036-.08c.319-.238.438-.597.398-.955l-.557-3.267 2.39-2.311a.938.938 0 0 0 .24-.996c-.2-.359-.479-.638-.877-.677zm-2.869 3.346c-.16.12-.2.319-.16.518l.558 3.148-2.748-1.435a.679.679 0 0 0-.558 0l-2.948 1.474.557-3.187a.589.589 0 0 0-.159-.518l-2.27-2.23 3.147-.479a.62.62 0 0 0 .438-.319L16.8 6.327l1.395 2.868c.08.16.239.319.438.319l3.147.478-2.23 2.231z"/></svg>