<svg xmlns="http://www.w3.org/2000/svg" width="40" height="40" fill="none"><path fill="#000" fill-opacity=".5" d="M25.554 35.39a13.36 13.36 0 0 1-11.108 0 .39.39 0 1 0-.327.71 14.136 14.136 0 0 0 11.761 0 .39.39 0 0 0-.326-.71zM13.025 10.809a14.055 14.055 0 0 0-6.815 8.07.39.39 0 1 0 .742.244A13.274 13.274 0 0 1 13.39 11.5a.391.391 0 0 0-.366-.69zm20.395 8.583a.391.391 0 0 0 .37-.512 14.055 14.055 0 0 0-6.815-8.071.39.39 0 1 0-.366.69 13.274 13.274 0 0 1 6.438 7.624.39.39 0 0 0 .372.27zm-16.818-2.576a.39.39 0 0 0 .39-.39v-4.673a2.375 2.375 0 0 1 2.372-2.372h1.05a2.596 2.596 0 0 1 2.594 2.594v4.453a.39.39 0 0 0 .781 0v-4.453a3.378 3.378 0 0 0-2.024-3.092 3.382 3.382 0 1 0-3.6-.045 3.157 3.157 0 0 0-1.954 2.915v4.673a.39.39 0 0 0 .39.39zM17.399 6a2.601 2.601 0 1 1 5.203 0 2.601 2.601 0 0 1-5.203 0zM35.65 28.247a3.383 3.383 0 1 0-3.6-.046 3.158 3.158 0 0 0-1.953 2.916v4.672a.39.39 0 1 0 .78 0v-4.672a2.376 2.376 0 0 1 2.374-2.373h1.046a2.597 2.597 0 0 1 2.593 2.594v4.453a.39.39 0 0 0 .782 0v-4.453a3.378 3.378 0 0 0-2.021-3.091zm-4.365-2.884a2.6 2.6 0 1 1 5.201 0 2.6 2.6 0 0 1-5.201 0zM7.879 28.247a3.383 3.383 0 1 0-3.6-.044 3.157 3.157 0 0 0-1.953 2.916v4.672a.39.39 0 0 0 .78 0v-4.674a2.375 2.375 0 0 1 2.373-2.373h1.05a2.597 2.597 0 0 1 2.594 2.594v4.453a.39.39 0 0 0 .78 0v-4.453a3.379 3.379 0 0 0-2.024-3.091zm-4.363-2.884a2.601 2.601 0 1 1 5.202 0 2.601 2.601 0 0 1-5.202 0z"/></svg>