<svg xmlns="http://www.w3.org/2000/svg" width="34" height="34" fill="none"><path fill="#000" fill-opacity=".5" d="m33.25 29.5-8.75-8.75c-.364-.364-.808-.547-1.25-.547-.158 0-.314.032-.469.078l-1.237-1.237A11.803 11.803 0 0 0 23.875 12C23.875 5.44 18.559.125 12 .125 5.44.125.125 5.441.125 12c0 6.56 5.316 11.875 11.875 11.875 2.641 0 5.073-.872 7.044-2.33l1.237 1.236c-.176.587-.025 1.225.469 1.719l8.75 8.75c.364.364.808.547 1.25.547.442 0 .886-.183 1.25-.547L33.25 32c.729-.729.729-1.771 0-2.5zM12 23.25C5.797 23.25.75 18.203.75 12S5.797.75 12 .75 23.25 5.797 23.25 12 18.203 23.25 12 23.25zm8.583-1.05-1.033-1.034a11.972 11.972 0 0 0 1.616-1.616l1.033 1.033c-.067.053-.135.103-.199.167L20.75 22c-.064.064-.114.132-.167.2zm12.225 9.358-1.25 1.25c-.237.238-.517.364-.808.364-.29 0-.57-.126-.808-.364l-8.75-8.75c-.483-.483-.483-1.133 0-1.616l1.25-1.25c.237-.238.517-.364.808-.364.29 0 .57.126.808.364l8.75 8.75c.483.483.483 1.133 0 1.616z"/><path fill="#000" fill-opacity=".5" d="M17.966 6.034a.313.313 0 0 0-.442.442A7.76 7.76 0 0 1 19.812 12a7.762 7.762 0 0 1-2.288 5.523c-3.046 3.046-8.001 3.046-11.048 0a.313.313 0 0 0-.442.442A8.41 8.41 0 0 0 12 20.433a8.41 8.41 0 0 0 5.966-2.467 8.383 8.383 0 0 0 2.471-5.965 8.382 8.382 0 0 0-2.47-5.967z"/><path fill="#000" fill-opacity=".5" d="M12 2C6.486 2 2 6.486 2 12s4.486 10 10 10 10-4.486 10-10S17.514 2 12 2zm0 19.375a9.375 9.375 0 1 1 0-18.75 9.375 9.375 0 0 1 0 18.75z"/></svg>