<svg xmlns="http://www.w3.org/2000/svg" width="30" height="38" fill="none"><path fill="#000" fill-opacity=".5" d="M16.092 16.669a1.25 1.25 0 0 0-2.185 0l-2.058 3.703-4.158.814a1.249 1.249 0 0 0-.676 2.078l2.886 3.102-.511 4.206a1.25 1.25 0 0 0 1.768 1.284L15 30.07l3.842 1.786a1.25 1.25 0 0 0 1.768-1.284l-.511-4.206 2.885-3.102a1.25 1.25 0 0 0-.675-2.078l-4.158-.814-2.059-3.703zm3.091 8.846a1.247 1.247 0 0 0-.325 1.002l.511 4.206-3.842-1.787a1.248 1.248 0 0 0-1.054 0l-3.842 1.786.511-4.205a1.248 1.248 0 0 0-.325-1.003L7.93 22.413l4.157-.814a1.247 1.247 0 0 0 .853-.62l2.057-3.706.002.003 2.059 3.703a1.246 1.246 0 0 0 .852.62l4.158.814-2.886 3.102z"/><path fill="#000" fill-opacity=".5" d="M29.282.546A.625.625 0 0 0 28.75.25h-10a.625.625 0 0 0-.559.345l-3.19 6.382L11.808.595A.625.625 0 0 0 11.25.25h-10a.625.625 0 0 0-.559.905l6.366 12.731a3.448 3.448 0 0 0-.345.72 2.22 2.22 0 0 1-1.42 1.42 3.483 3.483 0 0 0-2.324 4.012c.03.152.044.307.044.462a2.23 2.23 0 0 1-.564 1.49 3.493 3.493 0 0 0-.001 4.645c.365.41.567.94.566 1.49 0 .155-.016.31-.045.462A3.483 3.483 0 0 0 5.294 32.6a2.22 2.22 0 0 1 1.419 1.42 3.483 3.483 0 0 0 4.012 2.325 2.273 2.273 0 0 1 1.952.52 3.493 3.493 0 0 0 4.646 0 2.278 2.278 0 0 1 1.952-.52 3.484 3.484 0 0 0 4.013-2.326 2.22 2.22 0 0 1 1.42-1.419 3.484 3.484 0 0 0 2.398-3.312 3.682 3.682 0 0 0-.073-.7 2.418 2.418 0 0 1-.045-.463c-.002-.549.2-1.079.565-1.489a3.493 3.493 0 0 0 0-4.646 2.23 2.23 0 0 1-.565-1.49c0-.155.015-.31.044-.462.047-.23.072-.465.074-.7a3.484 3.484 0 0 0-2.4-3.313 2.22 2.22 0 0 1-1.418-1.42 3.453 3.453 0 0 0-.345-.719L29.31 1.155a.626.626 0 0 0-.027-.609zM2.262 1.5h8.602L14.3 8.375l-1.73 3.46a2.11 2.11 0 0 1-.205.14c-.058.037-.112.077-.173.108a2.21 2.21 0 0 1-.279.107c-.062.021-.121.049-.185.064a2.3 2.3 0 0 1-.317.046c-.06.006-.119.02-.18.022a2.34 2.34 0 0 1-.507-.042 3.666 3.666 0 0 0-.7-.074 3.392 3.392 0 0 0-.495.04c-.045.007-.09.016-.134.024-.131.025-.26.057-.388.096-.033.01-.067.018-.1.03a3.561 3.561 0 0 0-.448.188c-.036.019-.07.04-.106.06a3.55 3.55 0 0 0-.324.2c-.023.017-.05.029-.073.046L2.26 1.5zm22.055 15.712a2.236 2.236 0 0 1 1.54 2.125c-.003.156-.02.31-.052.463a3.65 3.65 0 0 0-.067.7 3.48 3.48 0 0 0 .884 2.324 2.243 2.243 0 0 1 0 2.977v.001a3.48 3.48 0 0 0-.884 2.323c0 .235.022.47.067.7a2.235 2.235 0 0 1-1.486 2.587A3.47 3.47 0 0 0 22.1 33.63a2.235 2.235 0 0 1-2.125 1.54 2.445 2.445 0 0 1-.462-.051 3.533 3.533 0 0 0-3.024.817 2.3 2.3 0 0 1-2.979-.001 3.48 3.48 0 0 0-2.322-.884 3.7 3.7 0 0 0-.7.067 2.433 2.433 0 0 1-.463.052 2.235 2.235 0 0 1-2.124-1.538 3.471 3.471 0 0 0-2.218-2.218 2.236 2.236 0 0 1-1.54-2.125c.003-.156.02-.31.052-.463.045-.23.067-.465.068-.7a3.48 3.48 0 0 0-.885-2.324 2.243 2.243 0 0 1 0-2.978 3.48 3.48 0 0 0 .885-2.323c0-.235-.023-.47-.068-.7a2.434 2.434 0 0 1-.051-.462 2.235 2.235 0 0 1 1.537-2.125 3.473 3.473 0 0 0 2.22-2.219 2.238 2.238 0 0 1 2.124-1.538c.155.003.31.02.463.052.266.051.537.073.808.063l.029-.002c.124-.005.247-.016.37-.034.016-.002.03-.007.046-.01.116-.018.23-.04.343-.07.032-.008.062-.02.094-.03a3.43 3.43 0 0 0 .282-.091c.043-.017.084-.039.125-.057.08-.034.158-.067.234-.107.051-.027.1-.06.149-.089.063-.037.128-.072.189-.114.059-.04.113-.087.17-.132.046-.036.094-.068.138-.107l.006-.004a2.316 2.316 0 0 1 2.69-.272c.117.068.227.148.328.238a3.504 3.504 0 0 0 3.024.818c.152-.032.307-.05.462-.052a2.24 2.24 0 0 1 2.125 1.538 3.471 3.471 0 0 0 2.217 2.218zm-2.273-4.322c-.022-.016-.047-.027-.069-.043a3.506 3.506 0 0 0-.334-.207c-.033-.018-.065-.038-.098-.055a3.539 3.539 0 0 0-.451-.19l-.098-.028a3.483 3.483 0 0 0-.39-.097c-.045-.008-.089-.017-.134-.023a3.394 3.394 0 0 0-.495-.04 3.684 3.684 0 0 0-.706.074 2.251 2.251 0 0 1-1.945-.521 3.33 3.33 0 0 0-.44-.327 3.511 3.511 0 0 0-.573-.299c-.066-.026-.132-.046-.199-.068a3.43 3.43 0 0 0-.339-.095c-.062-.014-.122-.032-.185-.043a3.563 3.563 0 0 0-.506-.046c-.028 0-.054-.007-.082-.007-.024 0-.047.006-.071.006a3.405 3.405 0 0 0-.504.04l1.134-2.267L19.136 1.5h8.603l-5.695 11.39z"/></svg>