<svg xmlns="http://www.w3.org/2000/svg" width="40" height="40" fill="none"><path fill="#000" fill-opacity=".5" d="M37.61 7.144a.39.39 0 0 0-.395-.217l-4.663.53-.004-.005-.006-.004.531-4.663a.39.39 0 0 0-.664-.32l-5.378 5.382a.391.391 0 0 0-.112.234l-.572 5.026-1.358 1.358A13.38 13.38 0 0 0 15.78 10.8c-7.403 0-13.426 6.023-13.426 13.426 0 7.403 6.023 13.425 13.426 13.425 7.403 0 13.426-6.022 13.426-13.425a13.376 13.376 0 0 0-3.665-9.209L26.9 13.66l5.026-.572a.391.391 0 0 0 .234-.112l5.382-5.382a.39.39 0 0 0 .07-.449zm-5.885.579L29.737 9.71l.446-3.914L32.17 3.81l-.446 3.914zm-4.05.58 1.622-1.62-.446 3.915-1.62 1.62.445-3.915zm.746 15.92c0 6.973-5.672 12.645-12.645 12.645-6.972 0-12.644-5.672-12.644-12.645 0-6.972 5.672-12.644 12.644-12.644a12.6 12.6 0 0 1 8.657 3.437l-2.714 2.711a8.82 8.82 0 1 0 .552.553l2.712-2.713a12.597 12.597 0 0 1 3.438 8.656zm-13.238.594a.39.39 0 0 0 .552 0l2.802-2.802a3.544 3.544 0 1 1-.552-.553l-2.802 2.803a.39.39 0 0 0 0 .552zm3.359-3.91a4.324 4.324 0 1 0 .552.552l2.625-2.627a8.036 8.036 0 1 1-.547-.55l-2.63 2.625zm13.156-8.583-3.914.446 1.62-1.62 3.913-.447-1.619 1.621zm2.508-2.508-3.915.446 1.988-1.987 3.915-.445-1.988 1.986z"/></svg>