<svg xmlns="http://www.w3.org/2000/svg" width="40" height="40" fill="none"><g clip-path="url(#a)"><path fill="#000" fill-opacity=".5" d="M20 10.693c-4.573 0-6.875 2.038-7.995 3.75-1.522 2.318-1.796 5.454-.703 7.99.207.476.481.92.815 1.317a14.882 14.882 0 0 1 3.295 7.1l.28 1.672v4.05a.39.39 0 0 0 .39.39h7.836a.39.39 0 0 0 .39-.39v-4.048l.28-1.67a14.886 14.886 0 0 1 3.295-7.104c.333-.399.607-.844.812-1.322 1.093-2.536.822-5.672-.704-7.99-1.116-1.704-3.418-3.745-7.991-3.745zm0 25.49h-3.527v-3.3h7.054v3.3H20zm-.298-12.812a.236.236 0 0 0 .025.024.253.253 0 0 0 .02.021h.005a.316.316 0 0 0 .043.03l.021.013a.436.436 0 0 0 .05.021c.007 0 .014.007.02.008a.38.38 0 0 0 .055.012h.02a.321.321 0 0 0 .055 0h.018a.371.371 0 0 0 .053-.01l.022-.004.043-.016.028-.013a.368.368 0 0 0 .032-.02.31.31 0 0 0 .035-.024l.005-.004.022-.021c.008-.008.017-.015.024-.024l2.069-2.442-1.545 11.172h-1.64l-1.545-11.172 2.065 2.45zm8.275-1.25a4.551 4.551 0 0 1-.693 1.129 15.67 15.67 0 0 0-3.466 7.475l-.23 1.377H21.61L23.324 19.7a.39.39 0 0 0-.685-.306L20 22.511l-2.639-3.116a.39.39 0 0 0-.685.305l1.713 12.4h-1.976l-.235-1.376a15.664 15.664 0 0 0-3.467-7.475 4.574 4.574 0 0 1-.692-1.129c-.813-1.886-.932-4.854.637-7.25 1.016-1.549 3.117-3.396 7.344-3.396s6.324 1.847 7.344 3.396c1.57 2.396 1.45 5.364.633 7.25v.001zM6.662 8.486a.39.39 0 0 0-.552.552l2.867 2.867a.39.39 0 1 0 .553-.552L6.662 8.486zm.021 13.381H2.628a.39.39 0 1 0 0 .781h4.055a.39.39 0 1 0 0-.78zM20 7.872a.39.39 0 0 0 .39-.39V3.425a.39.39 0 1 0-.78 0V7.48a.39.39 0 0 0 .39.39zm13.89.614a.39.39 0 0 0-.553 0l-2.869 2.867a.39.39 0 0 0 .553.553l2.867-2.868a.39.39 0 0 0 .002-.552zm3.482 13.381h-4.055a.39.39 0 1 0 0 .781h4.055a.39.39 0 1 0 0-.78z"/><g clip-path="url(#b)"><path fill="#000" fill-opacity=".5" d="m39.937 3.156-.05.05-.187.186.041.171-.08.08a.67.67 0 1 0 .055.055l.08-.08.171.041.237-.236-.218-.05-.05-.217zm-.045.155.03.128.127.029-.106.105-.126-.03-.03-.127.105-.105zm-.676.24a.59.59 0 0 1 .39.147l-.09.091a.464.464 0 1 0 .055.055l.09-.09a.591.591 0 1 1-.445-.202zm0 .207c.093 0 .177.034.243.088l-.11.11a.23.23 0 0 0-.361.186c0 .127.102.23.228.23a.23.23 0 0 0 .188-.36l.11-.11a.377.377 0 0 1 .088.241.385.385 0 1 1-.386-.385zm0 .234a.15.15 0 0 1 .076.021l-.124.125.055.055.124-.124a.15.15 0 0 1-.13.225.15.15 0 0 1-.152-.15.15.15 0 0 1 .151-.152z"/></g></g><defs><clipPath id="a"><path fill="#fff" d="M0 0h40v40H0z"/></clipPath><clipPath id="b"><path fill="#fff" d="M38.438 3.047h1.875v1.875h-1.875z"/></clipPath></defs></svg>